<?xml version="1.0" encoding="UTF-8"?>
<svg width="102px" height="35px" viewBox="0 0 102 35" version="1.1" xmlns="http://www.w3.org/2000/svg" xmlns:xlink="http://www.w3.org/1999/xlink">
    <!-- Generator: Sketch 56.3 (81716) - https://sketch.com -->
    <title>Blvd</title>
    <desc>Created with Sketch.</desc>
    <g id="Page-1" stroke="none" stroke-width="1" fill="none" fill-rule="evenodd">
        <path d="M27.388,25.36 C27.388,27.3440099 26.7800061,29.0479929 25.564,30.472 C24.3479939,31.8960071 22.6680107,32.8479976 20.524,33.328 C18.8279915,33.7120019 17.2280075,33.9359997 15.724,34 C14.2199925,34.0640003 9.80403664,34.096 2.476,34.096 C1.45199488,34.096 0.84400096,34.0800002 0.652,34.048 C0.45999904,34.0159998 0.364,33.904001 0.364,33.712 C0.364,33.4239986 0.8839948,33.28 1.924,33.28 C2.9640052,33.28 3.61199872,33.1280015 3.868,32.824 C4.12400128,32.5199985 4.252,31.7760059 4.252,30.592 L4.204,3.136 C4.204,2.20799536 3.46800736,1.72800016 1.996,1.696 C0.8759944,1.66399984 0.316,1.52000128 0.316,1.264 C0.316,0.97599856 0.66799648,0.832 1.372,0.832 C2.04400336,0.89600032 2.6999968,0.928 3.34,0.928 L14.86,0.928 C22.252037,0.928 25.948,3.45597472 25.948,8.512 C25.948,12.704021 23.1960275,15.295995 17.692,16.288 L17.596,16.48 C20.8280162,17.1520034 23.0679938,17.9999949 24.316,19.024 C26.3640102,20.7200085 27.388,22.8319874 27.388,25.36 Z M18.844,8.704 C18.844,4.0639768 17.4040144,1.744 14.524,1.744 C13.4999949,1.744 12.8120018,1.79199952 12.46,1.888 C11.7559965,2.11200112 11.404,2.60799616 11.404,3.376 L11.404,16.048 C14.2520142,16.048 16.2039947,15.552005 17.26,14.56 C18.3160053,13.567995 18.844,11.6160146 18.844,8.704 Z M19.708,25.12 C19.708,20.6079774 18.412013,17.9840037 15.82,17.248 C14.7959949,16.9599986 13.3240096,16.816 11.404,16.816 L11.5,19.6 C11.5,20.400004 11.4680003,21.5359926 11.404,23.008 C11.3719998,23.7440037 11.356,25.1199899 11.356,27.136 C11.356,30.5920173 11.451999,32.4319989 11.644,32.656 C11.9000013,33.0080018 12.6199941,33.184 13.804,33.184 C17.7400197,33.184 19.708,30.4960269 19.708,25.12 Z M44.036,33.664 C44.036,33.9200013 43.4280061,34.048 42.212,34.048 C41.9239986,34.048 41.0280075,34.0160003 39.524,33.952 C38.7559962,33.9199998 38.0040037,33.904 37.268,33.904 C36.5639965,33.904 35.2520096,33.9359997 33.332,34 L31.892,34.048 C31.1879965,34.0800002 30.836,33.9680013 30.836,33.712 C30.836,33.4559987 31.2039963,33.3439998 31.94,33.376 C33.0600056,33.4080002 33.7079991,33.2960013 33.884,33.04 C34.0600009,32.7839987 34.148,31.8240083 34.148,30.16 L34.148,4.864 C34.148,3.77599456 34.0360011,3.12800104 33.812,2.92 C33.5879989,2.71199896 32.9320054,2.608 31.844,2.608 C31.043996,2.608 30.644,2.49600112 30.644,2.272 C30.644,2.01599872 31.0599958,1.87200016 31.892,1.84 C35.4760179,1.71199936 38.4039886,1.1680048 40.676,0.208 C40.644,1.1680048 40.628,6.78394864 40.628,17.056 L40.628,29.008 C40.628,31.1840109 40.6839994,32.4559982 40.796,32.824 C40.9080006,33.1920018 41.2999966,33.3600002 41.972,33.328 L43.412,33.28 C43.8280021,33.28 44.036,33.4079987 44.036,33.664 Z M66.252,13.504 C66.252,13.696001 65.8680038,13.8079998 65.1,13.84 C64.2359957,13.8720002 63.6360017,14.0639982 63.3,14.416 C62.9639983,14.7680018 62.5240027,15.6799926 61.98,17.152 C61.4359973,18.7200078 60.764004,20.6559885 59.964,22.96 L56.028,33.568 C55.7719987,34.3040037 55.4840016,34.672 55.164,34.672 C54.8759986,34.672 54.4200031,33.968007 53.796,32.56 C53.1719969,31.151993 51.0680179,26.0800437 47.484,17.344 C46.8119966,15.7119918 46.4120006,14.7840011 46.284,14.56 C45.9959986,14.1439979 45.2760058,13.936 44.124,13.936 C43.6119974,13.936 43.356,13.8080013 43.356,13.552 C43.356,13.2959987 43.5319982,13.168 43.884,13.168 C44.1720014,13.168 44.4279989,13.1839998 44.652,13.216 C45.1640026,13.3440006 46.9399848,13.3760003 49.98,13.312 L54.78,13.216 C54.972001,13.1839998 55.2279984,13.168 55.548,13.168 C55.9000018,13.168 56.076,13.2799989 56.076,13.504 C56.076,13.6640008 55.372007,13.7919995 53.964,13.888 C53.5799981,13.9200002 53.388,14.1119982 53.388,14.464 C53.388,14.8480019 53.9159947,16.4879855 54.972,19.384 C56.0280053,22.2800145 56.9719958,24.7039902 57.804,26.656 C60.5240136,19.3919637 61.884,15.3920037 61.884,14.656 C61.884,14.0799971 61.2760061,13.8079998 60.06,13.84 C59.2279958,13.8720002 58.812,13.7600013 58.812,13.504 C58.812,13.311999 58.9399987,13.216 59.196,13.216 L62.652,13.216 C63.1320024,13.2480002 63.4039997,13.264 63.468,13.264 C63.7240013,13.264 64.1159974,13.2480002 64.644,13.216 C65.1720026,13.1839998 65.5639987,13.168 65.82,13.168 C66.1080014,13.168 66.252,13.2799989 66.252,13.504 Z M90.676,33.088 C90.676,33.3120011 90.3560032,33.424 89.716,33.424 L87.556,33.376 C85.9879922,33.3439998 84.3400086,33.727996 82.612,34.528 C82.419999,34.5920003 82.3080002,34.624 82.276,34.624 C81.9879986,34.624 81.8280002,34.3360029 81.796,33.76 C81.796,33.4719986 81.7480005,33.0720026 81.652,32.56 C80.3719936,33.9360069 78.6760106,34.624 76.564,34.624 C73.7479859,34.624 71.4280091,33.5840104 69.604,31.504 C67.7799909,29.4239896 66.868,26.784016 66.868,23.584 C66.868,20.3199837 67.7959907,17.68801 69.652,15.688 C71.5080093,13.68799 73.9559848,12.688 76.996,12.688 C78.9800099,12.688 80.5959938,13.4239926 81.844,14.896 L81.844,8.176 C81.844,5.2959856 81.7160013,3.59200264 81.46,3.064 C81.2039987,2.53599736 80.3560072,2.28799984 78.916,2.32 C78.0839958,2.32 77.668,2.20800112 77.668,1.984 C77.668,1.75999888 77.8599981,1.648 78.244,1.648 C81.1560146,1.648 83.9399867,1.21600432 86.596,0.352 C86.9800019,0.22399936 87.2519992,0.16 87.412,0.16 C87.7640018,0.16 87.94,0.54399616 87.94,1.312 L87.988,3.712 L88.036,8.32 L88.036,31.216 C88.036,31.7600027 88.1159992,32.127999 88.276,32.32 C88.5000011,32.6080014 89.0599955,32.7360002 89.956,32.704 C90.4360024,32.6719998 90.676,32.7999986 90.676,33.088 Z M81.796,28.768 L81.796,18.304 C81.796,16.8639928 81.5560024,15.7920035 81.076,15.088 C80.467997,14.1919955 79.6200054,13.744 78.532,13.744 C75.4599846,13.744 73.924,17.1519659 73.924,23.968 C73.924,27.0080152 74.3159961,29.3599917 75.1,31.024 C75.8840039,32.6880083 76.979993,33.52 78.388,33.52 C79.2200042,33.52 79.9959964,33.1440038 80.716,32.392 C81.4360036,31.6399962 81.796,30.4320083 81.796,28.768 Z M101.996,31.024 C101.996,32.016005 101.676003,32.8319968 101.036,33.472 C100.395997,34.1120032 99.580005,34.432 98.588,34.432 C97.595995,34.432 96.7640034,34.1040033 96.092,33.448 C95.4199966,32.7919967 95.084,31.9840048 95.084,31.024 C95.084,30.031995 95.4199966,29.2000034 96.092,28.528 C96.7640034,27.8559966 97.595995,27.52 98.588,27.52 C99.5160046,27.52 100.315997,27.8559966 100.988,28.528 C101.660003,29.2000034 101.996,30.031995 101.996,31.024 Z" id="Blvd." fill="#181818" fill-rule="nonzero"></path>
    </g>
</svg>